<?xml version="1.0" encoding="utf-8"?>
<!-- Generator: Adobe Illustrator 27.0.0, SVG Export Plug-In . SVG Version: 6.00 Build 0)  -->
<svg version="1.1" id="Calque_1" xmlns="http://www.w3.org/2000/svg" xmlns:xlink="http://www.w3.org/1999/xlink" x="0px" y="0px"
	 viewBox="0 0 170 44" style="enable-background:new 0 0 170 44;" xml:space="preserve">
<style type="text/css">
	.st0{fill-rule:evenodd;clip-rule:evenodd;fill:#FFFFFF;}
	.st1{fill:#FFFFFF;}
</style>
<path class="st0" d="M57.6,26.3c-4.3,0-7.8-2.4-7.8-7.4v-8.4h-4.1V5.7h4.1V0h5.5v5.7H61v4.9h-5.7v7.3c0,2.5,1,3.5,3.5,3.5
	c0.9,0,1.6-0.1,2.3-0.4v4.9C60.2,26.2,59.1,26.3,57.6,26.3z"/>
<path class="st1" d="M74.2,10.3c-3,0-5.1,2.4-5.1,5.6s2.1,5.6,5.1,5.6s5.1-2.4,5.1-5.6S77.2,10.3,74.2,10.3z M73,5.2
	c2.8,0,4.9,1.4,5.8,2.7V5.7h5.6v20.4h-5.6v-2.3c-0.9,1.3-3,2.7-5.8,2.7c-5.4,0-9.5-4.9-9.5-10.7S67.6,5.2,73,5.2z"/>
<path class="st0" d="M89.8,5.7h5.6V8c1.1-1.6,2.9-2.8,5.4-2.8c3,0,5.1,1.4,6.3,3.8c1.3-2.5,4-3.8,6.3-3.8c4.8,0,7.6,3.5,7.6,9V26
	h-5.6V15.2c0-3-1-4.9-3.2-4.9c-2.4,0-4.1,1.9-4.1,5.8v10h-5.6V15.2c0-3-1-4.9-3.2-4.9c-2.4,0-4.1,1.9-4.1,5.8v10h-5.6L89.8,5.7
	L89.8,5.7z"/>
<path class="st1" d="M130.4,13.5h9.5c-0.7-2.7-2.8-3.8-4.7-3.8C132.7,9.8,130.9,11.3,130.4,13.5L130.4,13.5z M135.3,26.5
	c-6.2,0-10.6-4.5-10.6-10.7s4.5-10.6,10.7-10.6s10.9,4.3,10.6,12h-15.8c0.2,2.4,2,4.5,5.5,4.5c1.9,0,3.6-0.9,4.3-2.2h5.8
	C144.5,23.6,140.5,26.5,135.3,26.5z"/>
<path class="st0" d="M159.3,21.3c2.9,0,5-2.3,5-5.4s-2.1-5.4-5-5.4s-5.1,2.3-5.1,5.4S156.4,21.3,159.3,21.3z M159.3,26.5
	c-5.9,0-10.7-4.7-10.7-10.7s4.8-10.7,10.7-10.7S170,9.9,170,15.9S165.2,26.5,159.3,26.5z"/>
<rect x="50.4" y="33.4" class="st1" width="1" height="7.7"/>
<path class="st1" d="M53.4,35.6h0.9v0.8c0.3-0.6,0.9-0.9,1.6-0.9c0.8,0,1.4,0.4,1.7,1.2c0.3-0.7,1-1.2,1.8-1.2
	c1.2,0,1.9,0.9,1.9,2.2V41h-0.9v-3.2c0-0.9-0.4-1.5-1.1-1.5c-0.9,0-1.5,0.8-1.5,2V41h-0.9v-3.2c0-0.9-0.3-1.5-1-1.5
	c-0.9,0-1.5,0.8-1.5,2V41h-0.9L53.4,35.6L53.4,35.6L53.4,35.6z"/>
<path class="st1" d="M65.6,36.4c-1.1,0-1.8,0.9-1.8,2s0.7,2,1.8,2s1.8-0.9,1.8-2S66.7,36.4,65.6,36.4z M63,35.6h0.9v0.8
	c0.3-0.5,1.1-0.9,1.9-0.9c1.5,0,2.6,1.3,2.6,2.8s-1.1,2.8-2.6,2.8c-0.8,0-1.5-0.4-1.9-0.9v3.1H63V35.6L63,35.6z"/>
<path class="st1" d="M72.2,36.4c-1.1,0-1.8,0.9-1.8,2s0.8,2,1.8,2s1.8-0.9,1.8-2S73.3,36.4,72.2,36.4z M72,35.5
	c0.8,0,1.5,0.4,1.9,0.9v-0.8h0.9V41h-0.9v-0.8c-0.3,0.5-1.1,0.9-1.9,0.9c-1.5,0-2.6-1.3-2.6-2.8S70.5,35.5,72,35.5z"/>
<path class="st1" d="M79.1,41.2c-1.6,0-2.8-1.3-2.8-2.8s1.2-2.8,2.8-2.8c1.4,0,2.4,0.8,2.7,2h-1c-0.2-0.7-0.9-1.2-1.7-1.2
	c-1.1,0-1.9,0.9-1.9,2s0.8,2,1.9,2c0.8,0,1.5-0.5,1.7-1.2h1C81.5,40.3,80.4,41.1,79.1,41.2z"/>
<path class="st1" d="M85.1,41.1c-0.9,0-1.7-0.5-1.7-1.7v-3h-1.1v-0.9h1.1V34h0.9v1.5h1.6v0.9h-1.6v2.8c0,0.7,0.3,0.9,0.9,0.9
	c0.2,0,0.5,0,0.7-0.1v1C85.7,41,85.4,41.1,85.1,41.1L85.1,41.1z"/>
<polygon class="st1" points="92.7,33.4 97.1,33.4 97.1,34.3 93.7,34.3 93.7,36.6 96.4,36.6 96.4,37.6 93.7,37.6 93.7,41 92.7,41 "/>
<path class="st1" d="M97.6,35.6h0.9v3.2c0,0.9,0.5,1.5,1.2,1.5c0.8,0,1.5-0.7,1.5-2v-2.7h0.9V41h-0.9v-0.8c-0.3,0.6-1,0.9-1.7,0.9
	c-1.2,0-2-0.9-2-2.2L97.6,35.6L97.6,35.6L97.6,35.6z"/>
<path class="st1" d="M103.9,35.6h0.9v0.8c0.4-0.6,1-0.9,1.7-0.9c1.2,0,2,0.8,2,2.2V41h-0.9v-3.2c0-0.9-0.5-1.5-1.3-1.5
	c-0.9,0-1.6,0.7-1.6,2V41h-0.9v-5.4H103.9z"/>
<path class="st1" d="M112.7,36.4c-1.1,0-1.8,0.9-1.8,2s0.8,2,1.8,2s1.8-0.9,1.8-2S113.8,36.4,112.7,36.4z M112.6,35.5
	c0.8,0,1.5,0.4,1.9,0.9v-3.5h0.9V41h-0.9v-0.8c-0.3,0.5-1.1,0.9-1.9,0.9c-1.5,0-2.6-1.3-2.6-2.8S111.1,35.5,112.6,35.5z"/>
<path class="st1" d="M123.2,39c0.1,0.9,0.9,1.2,1.7,1.2c0.8,0,1.4-0.4,1.4-1.2c0-0.6-0.4-1-1.1-1.3l-1.1-0.4
	c-1.2-0.4-1.8-1.1-1.8-2.2c0-1.2,1-2,2.3-2c1.6,0,2.3,1.1,2.4,2.1h-1c-0.2-0.8-0.8-1.1-1.4-1.1c-0.7,0-1.3,0.4-1.3,1s0.3,1,1.1,1.2
	l1,0.4c1.2,0.4,1.8,1.1,1.8,2.2c0,1.3-1,2.1-2.4,2.1c-1.6,0-2.6-1-2.7-2.2L123.2,39L123.2,39z"/>
<path class="st1" d="M131.1,40.3c1.1,0,1.9-0.9,1.9-2s-0.7-2-1.9-2s-1.9,0.9-1.9,2S130,40.3,131.1,40.3z M131.1,41.1
	c-1.6,0-2.8-1.2-2.8-2.8s1.2-2.8,2.8-2.8s2.8,1.2,2.8,2.8S132.7,41.1,131.1,41.1z"/>
<rect x="135.3" y="32.9" class="st1" width="0.9" height="8.1"/>
<path class="st1" d="M138,35.6h0.9v3.2c0,0.9,0.5,1.5,1.2,1.5c0.8,0,1.5-0.7,1.5-2v-2.7h0.9V41h-0.9v-0.8c-0.4,0.6-1,0.9-1.7,0.9
	c-1.2,0-2-0.9-2-2.2L138,35.6L138,35.6L138,35.6z"/>
<path class="st1" d="M146.5,41.1c-0.9,0-1.6-0.5-1.6-1.7v-3h-1.1v-0.9h1.1V34h0.9v1.5h1.6v0.9h-1.6v2.8c0,0.7,0.3,0.9,0.9,0.9
	c0.2,0,0.5,0,0.7-0.1v1C147.1,41,146.8,41.1,146.5,41.1z"/>
<path class="st1" d="M148.6,35.6h0.9V41h-0.9V35.6z M149,34.2c-0.4,0-0.7-0.3-0.7-0.7s0.3-0.7,0.7-0.7s0.6,0.3,0.6,0.7
	S149.4,34.2,149,34.2z"/>
<path class="st1" d="M153.7,40.3c1.1,0,1.9-0.9,1.9-2s-0.7-2-1.9-2s-1.9,0.9-1.9,2S152.6,40.3,153.7,40.3z M153.7,41.1
	c-1.6,0-2.8-1.2-2.8-2.8s1.2-2.8,2.8-2.8s2.8,1.2,2.8,2.8S155.3,41.1,153.7,41.1z"/>
<path class="st1" d="M157.9,35.6h0.9v0.8c0.4-0.6,1-0.9,1.7-0.9c1.2,0,2,0.8,2,2.2V41h-0.9v-3.2c0-0.9-0.5-1.5-1.3-1.5
	c-0.9,0-1.6,0.7-1.6,2V41h-0.9v-5.4H157.9z"/>
<path class="st1" d="M166.1,41.2c-1.1,0-2.1-0.6-2.2-1.7h0.9c0.1,0.7,0.7,0.9,1.2,0.9s1-0.2,1-0.7c0-0.4-0.3-0.7-0.9-0.9l-0.8-0.2
	c-0.9-0.2-1.4-0.8-1.4-1.6c0-0.9,0.8-1.5,1.9-1.5c1.1,0,1.9,0.7,1.9,1.5H167c-0.1-0.5-0.5-0.8-1-0.8s-1,0.4-1,0.8s0.2,0.6,0.8,0.8
	l0.9,0.2c0.9,0.2,1.4,0.8,1.4,1.6C168.1,40.6,167.2,41.1,166.1,41.2L166.1,41.2z"/>
<path class="st0" d="M20.4,0c11.2,0,20.4,8.9,20.4,20.2c0,1.6-0.2,3.1-0.5,4.6H27.6c0.7-1.3,1.1-2.9,1.1-4.6c0-5.2-3.5-9-8.4-9
	S12,15,12,20.2c0,1.7,0.4,3.3,1.1,4.6H0.6c-0.3-1.5-0.6-3-0.6-4.6C0,8.9,9.1,0,20.4,0z M2.2,29.7h36.5c-3.3,6.8-10.2,11.4-18.3,11.4
	S5.5,36.5,2.2,29.7z"/>
</svg>
